<svg width="315" height="164" viewBox="0 0 315 164" fill="none" xmlns="http://www.w3.org/2000/svg">
<g clip-path="url(#clip0_880_7053)">
<path d="M84.5587 120.114C84.3596 119.592 84.1438 119.054 83.7123 118.501C83.065 117.678 82.5671 116.682 82.3514 115.749C82.0195 114.262 81.339 112.95 80.6752 111.669C80.4594 111.258 80.2436 110.846 80.0445 110.419C79.9449 110.198 79.7126 109.945 79.3972 109.882C79.0653 109.818 78.9989 109.692 78.8661 109.154C78.833 108.996 78.7832 108.854 78.7334 108.696C78.6504 108.474 78.5674 108.237 78.501 108.016C78.2189 107.209 77.9367 106.371 77.4057 105.659C76.2771 104.125 75.7958 103.445 75.2481 101.642C75.1651 101.342 74.9494 101.057 74.6838 100.867C74.0864 100.456 73.7876 99.8709 73.6217 98.8588C73.5553 98.4792 73.4225 98.1945 73.2068 98.0048C72.6425 97.5303 72.3106 96.8819 71.9454 96.186C71.5305 95.3953 71.099 94.5887 70.319 93.9561C70.2692 93.9087 70.1862 93.7664 70.1364 93.6557C70.0866 93.5608 70.0368 93.4501 69.9871 93.371C69.0411 91.7579 68.1615 90.0657 67.315 88.4368C66.3359 86.539 65.3235 84.5621 64.1617 82.6802C63.3817 81.4308 62.7344 80.0549 62.1038 78.7423C61.9544 78.426 61.7884 78.0939 61.6391 77.7776C61.4897 77.4613 61.3735 77.1292 61.2408 76.7654C61.108 76.37 60.9752 75.9747 60.7761 75.5793C59.8467 73.729 58.8509 71.9102 57.9381 70.2022C57.7555 69.8701 57.5397 69.538 57.3406 69.2217C57.0916 68.8422 56.8593 68.4784 56.6767 68.0989C56.3448 67.4346 56.0295 66.7388 55.7141 66.0588C55.2992 65.1415 54.8677 64.1926 54.3698 63.2753C53.789 62.1841 53.1583 61.0771 52.5442 60.0333C52.0463 59.1793 51.5318 58.2937 51.0505 57.408C50.8016 56.9494 50.6688 56.5066 50.7352 56.2852C50.9344 55.5893 51.3825 54.9093 51.8306 54.2292C52.0297 53.913 52.3119 53.6125 52.594 53.312C52.6604 53.2329 52.7434 53.1538 52.8098 53.0748L53.3077 53.1538C53.5234 53.1855 53.7392 53.0906 53.8553 52.9166C53.9383 52.7901 54.0379 52.6636 54.1209 52.5529C54.3864 52.2208 54.652 51.8728 54.7018 51.43C54.7516 51.003 54.5192 50.6076 54.32 50.2597C54.32 50.2597 54.32 50.2281 54.3035 50.2123C54.486 50.0541 54.6852 49.8802 54.8677 49.6904C55.0669 49.469 55.2329 49.2318 55.3988 48.9945C55.3988 48.9945 55.3988 48.9945 55.4154 48.9945C55.7307 49.0736 56.0627 49.1685 56.4112 49.121C57.1912 49.0103 57.2908 48.3461 57.324 48.0773C57.324 47.9982 57.3572 47.8875 57.3738 47.8559C57.4568 47.7135 57.6393 47.5712 57.8551 47.3972C58.0874 47.2075 58.3364 47.0493 58.6019 46.8595L58.967 46.6065C59.133 46.4958 59.216 46.306 59.1828 46.1162C59.1828 46.0213 59.1164 45.9264 59.05 45.8474C60.2782 45.0566 61.4399 44.0445 61.8714 42.4156C63.2987 41.9886 64.2613 40.5178 64.0455 39.047C64.0124 38.873 63.946 38.4302 63.9792 38.3511C64.0787 38.2721 64.643 38.2088 64.8422 38.193C65.0911 38.1614 65.2737 37.9874 65.3235 37.7502C65.4065 37.2125 65.4894 36.9911 65.9707 36.8487C66.7508 36.6273 67.564 35.9947 67.398 34.9509C67.4478 34.9035 67.5308 34.8402 67.564 34.8244C67.6802 34.777 67.8793 34.7928 68.0785 34.7928C68.2112 34.7928 68.3274 34.7928 68.4602 34.7928C68.7257 34.7928 68.9415 34.5872 68.9747 34.35C68.9747 34.2551 68.9913 34.1602 68.9913 34.0653C68.9913 34.0337 68.9913 34.0021 68.9913 33.9704C69.8709 33.1006 70.8003 32.2308 71.7297 31.3926C71.8625 31.2661 72.0284 31.1712 72.1944 31.0447C72.4599 30.8707 72.7421 30.6809 72.9744 30.4279C73.3561 29.9851 73.6881 29.4948 74.0034 29.0362C74.5013 28.2929 74.966 27.5812 75.663 27.0593C75.8124 26.9486 75.9784 26.743 75.995 26.49C76.0448 25.9207 76.4597 25.5569 76.9576 25.1299C77.2065 24.9085 77.4721 24.6871 77.6878 24.4341C77.7708 24.3234 77.8538 24.2443 77.9202 24.1652C78.584 23.4061 78.6836 23.0898 78.2687 22.1725C78.501 22.0618 78.7334 21.9669 78.9823 21.8721C79.0487 21.8404 79.1317 21.8088 79.2147 21.793C79.4304 21.7297 79.6794 21.6348 79.8785 21.4767C80.2602 21.1762 80.6254 20.8441 80.9407 20.5436C81.0569 20.4329 81.1896 20.3222 81.3058 20.2115C81.339 20.1957 81.3556 20.1641 81.3722 20.1324C81.4884 19.9743 81.6046 19.8319 81.7041 19.6896C81.9531 19.3733 82.1854 19.057 82.4012 18.7565C82.5174 18.5826 82.6999 18.4086 82.8991 18.2346C83.2808 17.8709 83.7621 17.4281 83.8783 16.7164C84.957 16.4159 85.3885 15.5777 85.7703 14.8186C85.8366 14.6921 85.8864 14.6289 85.903 14.5972C87.0814 14.2019 87.5461 13.3004 87.8116 12.5571C87.8282 12.4939 87.9112 12.4148 87.9278 12.3832C88.4921 12.1301 88.8406 11.798 88.9568 11.3552C89.0563 10.9914 89.0066 10.5961 88.7742 10.1849C89.3717 9.3467 90.2845 8.95133 91.3301 8.57177C91.4794 8.52433 91.5956 8.41362 91.6454 8.27129C91.6952 8.12896 91.6952 7.97081 91.6122 7.84429C91.496 7.6387 91.3798 7.44892 91.2637 7.27495C91.0645 6.95866 90.8985 6.6898 90.8322 6.45258C90.7658 6.23117 90.7326 5.99395 90.6994 5.74091C90.5832 5.01343 90.4504 4.19106 89.7368 3.54265C89.8032 2.6412 89.3053 2.02442 88.8572 1.48672C88.5751 1.13879 88.2929 0.80668 88.1601 0.395494C88.0938 0.205716 87.9112 0.0633823 87.712 0.0317526C87.4963 0.000122929 87.2971 0.110827 87.181 0.28479L86.5171 1.34439C85.3222 1.01227 85.0732 1.10716 84.2932 2.1035C84.1106 2.34072 83.8949 2.5305 83.6791 2.67283C82.3514 3.54265 80.9241 4.6655 80.2602 6.43677C80.2437 6.4684 80.2105 6.48421 80.1773 6.51584C80.1109 6.5791 80.0445 6.64236 79.9947 6.70562C79.7458 7.02192 79.4802 7.33821 79.2479 7.65451C79.1649 7.7494 79.0985 7.8601 79.0321 7.97081C78.9491 8.09733 78.8827 8.22384 78.7998 8.30292C78.2853 8.82481 77.7542 9.3467 77.2231 9.86859C76.8912 10.2007 76.5426 10.5328 76.2107 10.8807C75.995 11.0863 75.7958 11.3077 75.5967 11.5291C75.2315 11.9245 74.8664 12.3041 74.4847 12.6362C74.02 13.0316 73.6881 13.4902 73.3561 13.9488C72.8582 14.6289 72.3935 15.2615 71.5969 15.5619C71.2152 15.7043 71.016 16.0522 70.8667 16.321C70.8169 16.4001 70.7837 16.4634 70.7339 16.5266C70.6509 16.6373 70.6011 16.7639 70.5347 16.8904C70.5016 16.9695 70.4352 17.096 70.4186 17.1118C69.6883 17.5862 69.1241 18.1872 68.593 18.7723C68.0453 19.3733 67.5142 19.9268 66.8503 20.338C66.535 20.5278 66.1865 20.7334 65.9209 21.0497C65.1409 21.9511 64.3609 22.8526 63.5808 23.7698C63.083 24.355 62.5851 24.9401 62.0872 25.5095C61.9876 25.6202 61.8714 25.7309 61.7552 25.8258C61.5229 26.0472 61.2408 26.3002 61.0748 26.6165C60.5769 27.597 59.996 28.6408 59.1164 29.5423C58.6683 30.0009 58.27 30.5228 57.8883 31.013C57.407 31.6298 56.9589 32.215 56.3946 32.7211C56.1125 32.9583 55.9133 33.2588 55.7473 33.4802C55.515 33.8123 55.2992 34.1444 55.1001 34.4765C54.5192 35.4096 53.9881 36.2794 53.0089 36.8013C52.6936 36.9752 52.5608 37.2915 52.4778 37.5446C52.4446 37.6237 52.4281 37.7027 52.3783 37.766L52.2787 37.9399C52.1791 38.1139 52.0961 38.2879 51.9799 38.4302C51.6314 38.8572 51.2663 39.2842 50.8846 39.6954C50.2041 40.4545 49.5071 41.2294 48.9594 42.1467C48.9262 42.21 48.893 42.2732 48.8598 42.3365C48.81 42.4156 48.7436 42.5579 48.7105 42.5737C47.8474 43.1114 47.3495 43.8705 46.8517 44.598C46.7023 44.8036 46.5695 45.025 46.4201 45.2306C46.0384 45.7367 45.6401 46.2427 45.2252 46.7646C45.1422 46.8753 45.0426 46.986 44.9597 47.0967C44.8767 47.0335 44.8103 46.986 44.7771 46.9386C44.2626 46.2111 43.6651 45.3571 43.1507 44.4715C42.9017 44.0445 42.686 43.6175 42.4536 43.1589C42.271 42.7951 42.0885 42.4156 41.8893 42.0676C41.3085 41.0238 40.7276 39.9801 40.1301 38.9521C39.3335 37.5446 38.5368 36.1212 37.7568 34.7137C37.4913 34.2393 37.2589 33.7332 37.0266 33.2588C36.6283 32.4048 36.1968 31.5191 35.6325 30.7126C34.6035 29.2576 33.6243 27.6761 32.6783 25.8732C31.5664 23.7857 30.3714 21.6981 29.1931 19.6896C28.7118 18.8514 28.2305 18.0132 27.7492 17.175C27.3011 16.4001 26.8696 15.6094 26.4381 14.8345C25.6414 13.3953 24.8116 11.9087 23.932 10.4696C22.9362 8.85644 22.0234 7.06936 21.1936 5.13995C20.4965 3.4952 19.2186 2.60957 18.1896 2.00861C18.0569 1.92953 17.9075 1.91372 17.7581 1.96116C17.6088 2.00861 17.4926 2.1035 17.4262 2.23002L16.5632 3.95384L14.8372 3.84313C14.6546 3.84313 14.4554 3.92221 14.3559 4.08035C14.2563 4.2385 14.2397 4.42828 14.3227 4.60224C14.4886 4.91854 14.6546 5.20321 14.8206 5.48788C15.1359 6.02558 15.418 6.50003 15.5342 6.97447C15.7168 7.67032 16.1981 8.08151 16.613 8.44525C16.6794 8.50851 16.7624 8.57177 16.8287 8.63503C16.5632 8.69829 16.3142 8.77736 16.0653 8.88807C15.9989 8.9197 15.9325 8.93551 15.8661 8.96714C15.501 9.10948 14.6546 9.42577 14.887 10.3588C14.9699 10.7068 15.2023 10.9598 15.418 11.197C15.4512 11.2287 15.4844 11.2603 15.5176 11.3077C15.3351 12.0827 15.0861 13.6642 16.3806 14.8661C16.9283 15.3722 17.1607 16.0206 17.4262 16.7164C17.559 17.096 17.7083 17.4755 17.9075 17.8551C18.1067 18.2346 18.2892 18.63 18.4718 19.0254C18.8369 19.8161 19.2186 20.6385 19.7497 21.366C20.148 21.9037 20.3638 22.4572 20.6127 23.0898C20.8285 23.6117 21.1106 24.102 21.3928 24.5764L21.5255 24.782C21.6251 24.956 21.7413 25.0983 21.8575 25.2564C21.9736 25.3988 22.0898 25.5411 22.1562 25.6834C22.4383 26.2528 22.7703 26.7905 23.0856 27.3282C23.5669 28.1506 24.0316 28.9255 24.3801 29.7795C24.6622 30.4595 25.0772 31.0921 25.4755 31.6773L25.6912 32.0094C25.8572 32.2624 26.0232 32.4996 26.2057 32.7369C26.853 33.6541 27.467 34.5239 27.6164 35.5994C27.6496 35.7891 27.6994 35.9631 27.799 36.1371C27.9483 36.4059 28.1143 36.6589 28.2803 36.912C28.8943 37.8925 29.4752 38.8098 29.5582 39.9168C29.5914 40.3438 29.9399 40.6759 30.2054 40.929L30.2884 41.0238C31.1348 41.862 31.6825 42.6686 31.9315 43.491C32.2966 44.6613 32.7613 45.8948 33.7073 46.9544C33.923 47.1916 34.0724 47.4605 34.089 47.6661C34.2218 48.6782 34.8027 49.469 35.3171 50.1648C35.4499 50.3388 35.5827 50.5128 35.6989 50.7025C35.8648 50.9556 36.0474 51.2086 36.2299 51.4616C36.6283 52.031 37.0598 52.6319 37.3917 53.2487C37.5245 53.5018 37.6904 53.739 37.8398 53.9762C37.9726 54.1818 38.1219 54.4032 38.2381 54.6246C38.4373 54.9884 38.6032 55.2888 37.4083 56.0005C37.1759 56.1428 37.093 56.4275 37.2091 56.6647L37.3751 56.9968C37.1096 57.0601 36.8606 57.155 36.6615 57.3606C36.3959 57.6611 36.1802 57.9774 35.9644 58.2937C35.7155 58.6732 35.4665 59.0211 35.1678 59.29C34.6533 59.7486 34.338 60.3022 34.0392 60.8399C33.7239 61.3934 33.4417 61.9153 32.9273 62.3106C32.2302 62.8483 31.7323 63.56 31.251 64.2559C30.8029 64.9201 30.3714 65.5369 29.7905 66.0113C29.4918 66.2485 29.276 66.6597 29.2595 67.0235C29.2429 67.3239 29.0603 67.5295 28.745 67.8458C28.6454 67.9565 28.5458 68.0514 28.4462 68.1621C28.1973 68.4468 27.9649 68.7473 27.716 69.0478L26.5542 70.4553C26.0397 71.0721 25.5253 71.7047 25.0108 72.3214C24.4299 73.0331 23.8656 73.7448 23.3013 74.4723L22.5877 75.3895C22.4881 75.4528 22.3885 75.516 22.289 75.5793C21.9404 75.7849 21.5587 76.0379 21.26 76.3859C20.4302 77.4138 19.6667 78.4734 18.9033 79.5172L18.4054 80.213C18.2892 80.3712 18.1564 80.5452 18.0237 80.7033C17.6254 81.1936 17.2271 81.6996 17.0279 82.3006C16.7624 83.0913 16.1815 83.6132 15.5674 84.1826C15.3351 84.404 15.0861 84.6254 14.8704 84.8468C14.5716 85.1631 14.2397 85.4636 13.9244 85.7482C13.6588 85.9855 13.4099 86.2227 13.1609 86.4757C12.8954 86.7446 12.6132 87.0609 12.2979 87.4721C11.9992 87.8674 11.6838 88.2628 11.4183 88.7214C11.2689 88.9745 11.1528 89.2275 11.0366 89.4806C10.854 89.8601 10.6881 90.2238 10.4557 90.5085C10.2234 90.7932 9.94122 91.062 9.64249 91.3309C8.96203 91.9635 8.182 92.6751 7.96625 93.798C7.96625 93.798 7.93306 93.8138 7.93306 93.8296C7.86667 93.8929 7.78369 93.9562 7.7339 94.0194C7.38537 94.4306 7.03685 94.8418 6.68833 95.253C5.84191 96.2493 4.9623 97.2931 4.13248 98.3527C3.5516 99.096 3.02052 99.9025 2.50603 100.677C2.32347 100.946 2.1575 101.215 1.97494 101.484C1.84217 101.69 1.65961 101.895 1.49365 102.101C1.12853 102.544 0.697019 103.034 0.514458 103.682C0.464669 103.714 0.41488 103.746 0.36509 103.761C0.265512 103.809 0.18253 103.856 0.116144 103.904C-0.0166273 103.999 -0.0996094 104.141 -0.0996094 104.283C-0.0996094 104.441 -0.0498201 104.584 0.0663548 104.694C0.18253 104.805 0.298705 104.9 0.41488 104.995C0.614037 105.153 0.796597 105.295 0.896176 105.454C1.57663 106.418 2.45624 107.114 3.5682 107.857C3.70097 107.952 3.86693 107.968 4.0163 107.936C4.16567 107.905 4.29844 107.794 4.36483 107.668C4.63037 107.146 4.99549 107.146 5.70914 107.193C5.84191 107.193 5.95808 107.209 6.07426 107.209C6.63854 107.209 7.86667 107.256 8.29818 106.118C9.22758 106.023 9.42673 105.786 9.65908 104.821L9.69228 104.694C9.79186 104.315 10.0076 103.935 10.2732 103.666C10.6383 103.303 11.0698 102.971 11.5179 102.623C11.717 102.465 11.9162 102.306 12.132 102.148C12.3311 101.99 12.3809 101.721 12.2647 101.516C12.1485 101.31 12.1485 101.184 12.1485 101.168C12.1485 101.168 12.1817 101.136 12.2647 101.12C13.3767 100.883 13.7418 100.124 14.0903 99.4123L14.2397 99.0802C14.5218 98.4792 14.804 97.8466 15.2355 97.4829C15.9325 96.8819 16.4636 96.2177 16.9615 95.3004C17.0611 95.1264 17.1773 94.9841 17.2436 94.9209C17.9407 94.8734 18.3058 94.4306 18.588 94.0985C18.7705 93.8771 18.8867 93.7347 19.0361 93.7031C19.2186 93.6557 19.3514 93.545 19.4178 93.371C19.6003 92.8966 19.9821 92.5012 20.397 92.09C20.9115 91.5681 21.4923 90.983 21.7081 90.129C21.7413 90.0973 21.8077 90.0499 21.8409 90.0024C21.9404 89.9234 22.04 89.8443 22.1064 89.7494C22.1894 89.6545 22.2558 89.5754 22.3387 89.4806C22.5877 89.2117 22.8366 88.927 23.0358 88.5949C23.3511 88.0098 23.8158 87.5511 24.5129 87.1083C25.1435 86.6971 25.6746 86.0329 25.8406 85.3845C26.1559 84.2458 26.687 83.4393 27.55 82.7751C27.7658 82.6011 27.8156 82.3006 27.6496 82.0792C27.5168 81.9052 27.4836 81.7945 27.5002 81.7471C27.5168 81.6364 27.799 81.4466 27.9981 81.3359C28.1807 81.2094 28.3798 81.0829 28.5458 80.9247C28.7948 80.6717 29.2595 80.5135 29.7739 80.3554C30.0561 80.2605 30.3382 80.1656 30.6038 80.0549C30.8029 79.9758 30.9357 79.786 30.9357 79.5805C30.9357 78.9637 31.3174 78.3943 32.1804 77.8408C32.6451 77.5245 33.2924 77.1133 33.226 76.2435C33.9562 75.9114 34.4043 75.3421 34.8193 74.836C35.0516 74.5513 35.284 74.2667 35.5495 74.0453C36.3129 73.3968 36.9436 72.6377 37.5411 71.9103C38.2381 71.0721 38.8854 70.2813 39.7318 69.6487C39.9641 69.4748 40.0471 69.2059 40.0969 69.0161C40.1301 68.8264 40.2131 68.5733 40.3625 68.4942C40.4952 68.4152 40.7442 68.431 41.0761 68.5417C41.2255 68.5891 41.3748 68.5733 41.5076 68.5101C41.6404 68.4468 41.74 68.3203 41.7732 68.1779C42.1217 66.8969 42.9515 66.0271 43.8809 65.1731C43.9473 65.2838 44.0137 65.3945 44.0635 65.5052C44.4452 66.1853 44.7937 66.8337 45.1754 67.4663C45.4078 67.8458 45.6567 68.2096 45.9057 68.5733C46.2542 69.0794 46.5695 69.5538 46.8351 70.0599C47.3661 71.0404 47.8474 72.0684 48.3287 73.0489C48.5777 73.555 48.8266 74.0769 49.0756 74.583C49.2415 74.9309 49.4573 75.2946 49.6896 75.7058C50.2207 76.6073 50.7684 77.5087 51.3161 78.426C52.0463 79.6595 52.7932 80.8773 53.5234 82.1108C53.7558 82.522 53.9881 82.9332 54.2205 83.3444C54.569 83.977 54.9341 84.6254 55.3324 85.258C55.8469 86.0645 56.378 86.8711 56.9091 87.6618C57.6725 88.8163 58.4691 90.0024 59.1828 91.1886C59.6475 91.9477 60.0458 92.77 60.4275 93.5766C60.7097 94.1776 61.0084 94.7785 61.3403 95.3795C62.4191 97.3563 63.5808 99.4281 64.9086 101.69C65.4065 102.559 65.9541 103.429 66.4686 104.267C66.8337 104.853 67.1989 105.438 67.5474 106.023C68.427 107.478 69.29 108.949 70.1364 110.419C70.2692 110.641 70.3854 110.894 70.5016 111.147C70.7671 111.716 71.0492 112.301 71.5305 112.744C72.0782 113.266 72.3935 113.93 72.7089 114.626C72.9246 115.085 73.1404 115.559 73.4557 116.018C74.0034 116.824 74.5511 117.599 75.2647 118.232C76.1941 119.054 77.2397 119.782 78.2355 120.493L78.667 120.794C79.0487 121.063 79.53 121.268 80.0113 121.379C80.6752 121.521 81.3556 121.601 82.0361 121.616C82.1356 121.616 82.2352 121.616 82.3514 121.632C82.5008 121.632 82.6667 121.648 82.8327 121.648C83.397 121.648 84.0442 121.521 84.5421 120.857C84.6417 120.715 84.6749 120.541 84.6085 120.383L84.5255 120.161L84.5587 120.114Z" fill="#c99a55"/>
<path d="M314.851 67.7826C314.801 67.4979 314.785 67.1816 314.768 66.8495C314.735 66.0429 314.685 65.1257 313.988 64.3507C313.49 63.7972 312.976 63.2437 312.461 62.7218C312.229 62.4846 312.013 62.2474 311.781 62.0101C311.632 61.8678 311.416 61.8046 311.217 61.8678C310.619 62.0418 309.706 62.3106 309.856 63.6707C309.972 64.588 310.022 65.3945 309.54 66.0588C309.325 66.3751 309.159 66.8811 309.258 67.2923C309.441 67.9723 309.175 68.6049 308.893 69.2692C308.794 69.4906 308.711 69.712 308.628 69.9334C307.532 73.1596 306.105 76.1328 304.412 78.7581C304.18 79.1218 303.981 79.5172 303.798 79.8967C303.665 80.1498 303.549 80.4028 303.4 80.6559C303.201 81.0038 303.001 81.3675 302.819 81.7313C302.338 82.6327 301.889 83.4867 301.275 84.2142C300.844 84.7203 300.379 85.2264 299.931 85.7166C299.068 86.6497 298.172 87.6144 297.475 88.7056C297.425 88.7531 297.242 88.8163 297.143 88.8638C297.076 88.8954 297.01 88.9112 296.944 88.9428C296.728 89.0377 296.496 89.1168 296.263 89.1959C296.13 89.2433 296.014 89.2908 295.882 89.3382C295.649 89.4331 295.417 89.5122 295.184 89.6071C294.089 90.0499 293.127 90.4453 291.898 90.2238C290.355 89.9392 289.077 89.5754 287.948 88.674C286.969 87.8832 285.841 87.0767 284.513 86.1911C283.135 85.2738 281.957 84.1984 280.878 82.9016C280.746 82.7276 280.596 82.5695 280.463 82.3955C279.982 81.7787 279.484 81.1619 278.82 80.6875C278.024 80.1023 277.576 79.3116 277.111 78.4892L277.011 78.3153C276.563 77.5245 276.115 76.718 275.634 75.9272C275.485 75.6742 275.319 75.4528 275.153 75.2314C274.87 74.8676 274.622 74.5197 274.522 74.156C274.472 73.9978 274.439 73.8238 274.422 73.6499C274.323 73.0331 274.173 72.2582 273.393 71.9419C273.128 71.8312 273.128 71.7995 273.178 71.3567C273.227 70.993 273.294 70.4395 272.813 70.0125C272.663 69.8859 272.564 69.6171 272.464 69.3482C272.414 69.2217 272.364 69.111 272.315 68.9845L272.265 68.8738C272.215 68.7789 272.149 68.6366 272.149 68.6208C272.414 67.5928 272.016 66.7546 271.651 66.0271C271.584 65.8848 271.518 65.7425 271.452 65.6001L271.335 65.3313C271.236 65.1257 271.153 64.9201 271.07 64.7145L270.489 63.307C270.058 62.2474 269.626 61.1878 269.178 60.144C269.062 59.8593 268.78 59.6063 268.481 59.464C268.315 59.3849 268.282 59.3374 268.282 59.3374C268.282 59.3374 268.282 59.2584 268.381 59.1477C268.962 58.3886 269.012 57.5187 268.497 56.5066C268.282 56.0638 268.083 55.4312 268.365 54.9251C268.448 54.7828 268.464 54.6246 268.398 54.4665C268.298 54.2609 268.215 54.0711 268.132 53.8971C267.966 53.5492 267.834 53.2329 267.734 52.9324C267.668 52.711 267.618 52.4738 267.585 52.2208C267.535 51.9519 267.485 51.6672 267.385 51.3826C267.269 51.0346 267.12 50.6867 266.987 50.3546C266.755 49.8169 266.539 49.295 266.473 48.7731C266.157 46.6697 264.78 45.3255 263.452 44.0445C263.253 43.8547 263.07 43.6649 262.871 43.4751C262.672 43.2854 262.407 43.2221 262.207 43.1905C260.979 43.0165 259.751 42.8426 258.573 42.6686L257.743 42.5579C257.544 42.5263 257.345 42.6053 257.228 42.7635C256.996 43.0798 256.747 43.3961 256.697 43.4277C256.631 43.4277 256.382 43.317 256.15 43.2063C255.868 43.0798 255.585 42.9849 255.303 42.8742C255.187 42.8267 255.054 42.7793 254.938 42.7318C254.805 42.6844 254.639 42.6844 254.507 42.7318C254.175 42.8742 253.893 43.0481 253.61 43.2221C252.897 43.6649 252.548 43.8389 252.15 43.6491C252.001 43.57 251.801 43.57 251.652 43.6491C251.42 43.7756 251.204 43.9021 251.005 44.0128C250.706 44.1868 250.457 44.345 250.291 44.3608C247.204 44.598 246.507 45.9897 245.744 48.267C245.628 48.615 245.445 48.9471 245.262 49.295C245.196 49.4057 245.146 49.5164 245.096 49.6271C245.03 49.7536 244.964 49.8643 244.881 49.9909C244.731 50.2281 244.565 50.4811 244.482 50.7816C244.25 51.5249 244.117 52.2998 244.001 53.0431C243.819 54.1976 243.636 55.273 243.088 56.2694C242.972 56.4908 243.005 56.728 243.039 56.8545C243.039 56.8861 243.039 56.902 243.039 56.9178C242.939 57.7401 242.823 58.5467 242.723 59.3533L242.657 59.9068C242.657 59.9068 242.64 60.0491 242.624 60.1282C242.59 60.2863 242.557 60.4603 242.557 60.6343C242.524 61.5673 242.507 62.5162 242.507 63.4493C242.507 63.6233 242.507 63.813 242.491 63.987C242.458 64.4773 242.441 64.9833 242.541 65.4894C242.673 66.1536 242.557 66.3592 242.424 66.4858C242.275 66.6281 242.209 66.8337 242.275 67.0235C242.341 67.2132 242.424 67.403 242.507 67.577C242.574 67.7035 242.657 67.8775 242.673 67.9882C242.259 68.684 242.441 69.3166 242.574 69.7911C242.624 69.9334 242.657 70.0757 242.69 70.2181C242.707 70.3762 242.823 70.5185 242.972 70.5976L243.536 70.8981L243.337 71.2935C243.254 71.4358 243.254 71.6098 243.337 71.7679C243.42 71.9102 243.57 72.021 243.736 72.0368L244.615 72.1633C244.665 72.2424 244.715 72.3373 244.781 72.4163C244.964 72.701 245.13 72.9382 245.163 73.1596C245.279 73.8555 245.727 74.235 246.092 74.5355C246.142 74.583 246.192 74.6304 246.258 74.6778C246.275 74.7411 246.291 74.8676 246.308 74.9625C246.341 75.1997 246.358 75.4211 246.374 75.6584C246.408 75.9905 246.424 76.3384 246.491 76.6863C246.54 77.0184 246.374 77.2873 245.976 77.4929C244.947 78.0306 243.769 78.6316 243.404 80.0075C242.657 80.0391 242.275 80.561 242.026 80.8931C241.976 80.9722 241.91 81.0512 241.844 81.1303C241.694 81.3043 241.561 81.4941 241.445 81.6838C241.064 82.2532 240.831 82.5536 240.3 82.5695C239.918 82.5695 239.57 82.9332 239.52 83.2495C239.47 83.5183 239.255 83.7398 239.022 83.9928C238.757 84.2775 238.441 84.6096 238.375 85.0524L236.898 85.9538C236.782 86.0329 236.666 86.0962 236.533 86.1752C236.251 86.3492 236.002 86.5074 235.736 86.6497C234.823 87.1241 233.844 87.6302 232.732 88.1679C232.633 88.2154 232.533 88.2628 232.433 88.3261C231.687 88.7214 231.487 88.7689 231.122 88.3261C230.873 88.0256 230.425 88.0098 230.11 87.994H229.994C229.678 87.9781 229.346 87.9781 229.098 87.994C228.948 87.8358 228.815 87.6777 228.683 87.5195C228.284 87.0767 227.952 86.6971 227.654 86.286C227.239 85.7166 226.84 85.0998 226.475 84.5147C226.326 84.2775 226.177 84.0561 226.027 83.8188C225.994 83.7556 225.961 83.6923 225.928 83.6449C225.845 83.4551 225.728 83.2337 225.513 83.0597C224.915 82.6011 224.65 81.9369 224.351 81.2252L224.251 80.9722C223.787 79.8651 223.272 78.7106 222.675 77.4296C222.459 76.9552 222.227 76.4966 221.994 76.0379C221.712 75.4686 221.413 74.8834 221.148 74.3141C220.633 73.1596 220.152 72.0051 219.654 70.8507C219.206 69.8069 218.758 68.7473 218.31 67.7035C218.127 67.3081 217.928 66.9286 217.729 66.549C217.497 66.1062 217.281 65.695 217.098 65.2522C216.368 63.4177 215.439 61.8678 214.277 60.5236C214.144 60.3654 214.028 60.1598 213.912 59.9542C213.845 59.8435 213.796 59.7486 213.729 59.6379L213.497 59.2742C212.982 58.4676 212.518 57.7243 212.269 56.8387C212.07 56.1112 211.671 55.3837 211.14 54.7828C210.028 53.5176 209.464 52.9957 207.804 53.9604C207.306 54.2451 206.709 54.3874 206.294 54.4348C204.468 54.6879 203.722 56.0005 203.323 56.9494C203.207 57.2341 203.074 57.5345 202.942 57.8192C202.759 58.1988 202.576 58.5941 202.427 59.0053L202.394 59.0686C202.228 59.5114 202.012 60.0491 202.145 60.571C202.311 61.2985 202.095 61.8836 201.415 62.4846C200.767 63.0539 200.552 63.6865 200.751 64.414C200.784 64.5405 200.784 64.7145 200.751 64.8252L200.519 65.442C199.954 66.8969 199.373 68.4152 199.407 70.0915C199.407 70.139 199.34 70.2813 199.307 70.3604C199.191 70.6134 199.058 70.9297 199.191 71.2618C199.241 71.3884 199.241 71.4516 199.241 71.4516C199.241 71.4516 199.191 71.4991 199.041 71.5465C198.062 71.847 197.647 72.7642 197.515 73.0489C196.9 74.409 196.386 75.7533 196.701 77.2715C196.701 77.2715 196.701 77.2873 196.701 77.3031C196.386 77.3664 196.071 77.6194 195.971 77.9199C195.722 78.6316 195.556 79.1851 195.407 79.707C195.34 79.9916 195.291 80.2921 195.241 80.5768C195.174 81.0829 195.091 81.5731 194.876 81.9052C194.477 82.5062 194.245 83.1072 194.129 83.8505C194.096 84.0402 194.079 84.23 194.046 84.4198C193.996 84.8468 193.93 85.2422 193.847 85.6375C193.797 85.8748 193.714 86.0171 193.681 86.0329C193.083 86.4441 192.917 86.9185 192.901 87.3455C192.868 87.2665 192.851 87.1716 192.818 87.0767C192.652 86.4757 192.469 85.8748 192.287 85.258C191.955 84.1509 191.606 83.0123 191.374 81.8894C191.142 80.8456 190.76 79.8493 190.395 78.8846C190.046 77.9832 189.698 77.0501 189.482 76.1012C189.216 74.9467 188.818 73.8238 188.436 72.7326C188.254 72.2424 188.088 71.7521 187.922 71.2618L187.524 70.0441C187.324 69.4431 187.125 68.858 186.943 68.257C186.893 68.0831 186.694 67.8142 186.378 67.7984C186.362 67.7984 186.345 67.7984 186.312 67.7984L185.897 67.7668C186.013 67.0076 185.947 66.1695 185.2 65.3629C184.835 64.9675 184.586 64.3666 184.354 63.7972L184.271 63.5758C184.138 63.2753 184.038 62.959 183.939 62.6427C183.623 61.7097 183.291 60.745 182.478 59.9068C182.13 59.543 181.848 58.9737 181.781 58.4202C181.599 57.0917 180.603 56.5066 179.79 56.0321C179.657 55.9531 179.524 55.874 179.408 55.7949C178.877 55.4628 178.395 55.3521 177.964 55.4628C177.732 55.5261 177.416 55.6684 177.151 56.0479C177.134 56.0479 177.101 56.0479 177.084 56.0479C176.653 56.0479 176.221 56.0479 175.856 56.0479H175.491C175.309 56.0479 175.126 56.1428 175.026 56.301C174.927 56.4433 174.844 56.6015 174.777 56.728C174.645 56.9652 174.529 57.1708 174.396 57.2815C173.964 57.6769 173.782 58.1197 173.632 58.5467C173.599 58.6258 173.566 58.7207 173.533 58.7997L173.383 59.1793C172.985 60.1756 172.603 61.1087 171.79 61.7255L171.608 61.852C171.043 62.2632 170.346 62.7693 170.446 63.8289C170.413 63.8763 170.33 63.9396 170.28 64.0028C170.18 64.1135 170.064 64.2242 169.965 64.3507C169.915 64.4298 169.832 64.5247 169.765 64.6038C169.483 64.9359 169.184 65.2996 169.267 65.7425C169.317 66.0588 169.218 66.2011 168.902 66.549L168.853 66.6123C168.554 66.9444 168.272 67.3081 168.305 67.7193C168.338 68.1621 168.073 68.4626 167.591 68.858C166.911 69.4115 166.562 70.0915 166.214 70.7558C166.098 70.993 165.965 71.2144 165.832 71.4358C165.749 71.5781 165.649 71.7363 165.55 71.8786C165.135 72.4796 164.687 73.1754 164.703 74.0611C164.703 74.0611 164.67 74.0927 164.654 74.0927C164.537 74.1718 164.405 74.2825 164.305 74.409L164.172 74.583C163.293 75.6584 162.38 76.7812 162.098 78.2678C161.948 79.0427 161.716 79.5014 161.251 79.8967C161.152 79.9758 160.272 80.7666 160.405 81.494C160.505 81.9527 160.239 82.2848 159.841 82.696C159.144 83.4551 158.795 84.2775 158.496 85.2738C158.43 85.4636 158.364 85.6692 158.264 85.7957C158.214 85.8748 158.148 85.9538 158.081 86.0171C157.75 86.4283 157.318 86.9818 157.517 87.7725C157.484 87.8042 157.451 87.82 157.434 87.8358C156.073 88.421 156.024 89.5754 156.106 90.382C156.106 90.4769 156.14 90.6034 156.173 90.7141C156.173 90.7457 156.189 90.7774 156.189 90.809C155.758 91.2993 155.725 91.8844 155.675 92.3114C155.675 92.4379 155.658 92.5486 155.642 92.6435C155.526 92.691 155.409 92.7226 155.31 92.77C154.878 92.9282 154.463 93.0705 154.198 93.4184C153.434 94.3832 152.688 95.4744 151.924 96.7396C151.708 97.0875 151.576 97.4512 151.443 97.815C151.294 98.1945 151.161 98.5583 150.962 98.8429C150.115 99.9974 149.302 101.278 148.937 102.86C148.937 102.923 148.821 103.05 148.738 103.16C148.671 103.255 148.605 103.334 148.539 103.429C148.505 103.477 148.472 103.524 148.422 103.572C148.29 103.746 148.124 103.951 148.074 104.22C148.007 104.615 147.775 104.853 147.344 105.106C147.194 104.505 147.061 103.904 146.912 103.287C146.564 101.848 146.198 100.377 145.916 98.9062C145.203 95.1106 144.572 91.3941 144.057 88.247C143.925 87.4721 143.875 86.6497 143.825 85.8748C143.792 85.4952 143.775 85.1157 143.742 84.7361C143.692 84.23 143.643 83.7239 143.593 83.2179C143.493 82.1108 143.377 80.9722 143.311 79.8493C143.294 79.4065 143.277 78.9795 143.277 78.5367C143.277 77.3506 143.244 76.117 142.879 74.8993C142.863 74.836 142.879 74.6937 142.879 74.583C142.879 74.4406 142.912 74.3141 142.896 74.1876C142.863 73.2387 142.829 72.2898 142.796 71.3567C142.796 71.0562 142.763 70.7558 142.746 70.4553C142.73 70.1074 142.697 69.7436 142.697 69.3957C142.68 68.8422 142.697 68.2728 142.697 67.7193C142.73 66.549 142.78 65.3313 142.464 64.1135C142.398 63.8289 142.431 63.4967 142.481 63.133C142.514 62.9116 142.531 62.6744 142.547 62.4213C142.547 62.0418 142.547 61.6464 142.481 61.1561C142.464 60.998 142.431 60.824 142.381 60.6659C142.331 60.4761 142.298 60.3021 142.298 60.1598C142.331 59.543 142.398 58.9263 142.464 58.3095C142.531 57.582 142.614 56.8387 142.647 56.0954C142.68 55.5893 142.647 55.0674 142.647 54.5772C142.647 54.0395 142.614 53.5334 142.647 53.0273C142.713 52.1733 142.796 51.3035 142.879 50.4653C142.962 49.6588 143.045 48.8364 143.111 48.014C143.161 47.3972 143.161 46.7804 143.178 46.1637C143.178 45.4836 143.194 44.772 143.261 44.0919C143.36 43.0481 143.493 41.9885 143.626 40.9606C143.775 39.8219 143.925 38.6516 144.024 37.4813L144.107 36.485C144.323 34.0179 144.555 31.4717 144.555 28.9413C144.555 28.5301 144.572 28.1031 144.605 27.6761C144.688 26.2211 144.771 24.7187 143.975 23.2638C143.609 22.6154 143.277 21.9511 142.929 21.2553C142.763 20.939 142.614 20.6227 142.448 20.2906C142.381 20.1641 142.265 20.0692 142.116 20.0217C141.966 19.9743 141.817 19.9901 141.684 20.0692C141.037 20.4171 140.522 20.4171 139.958 20.0375C138.879 19.3417 138.05 18.8198 137.27 18.3295C137.087 18.2188 136.871 18.1556 136.722 18.1239C136.672 18.1239 136.606 18.0923 136.556 18.0765C136.075 17.9183 135.577 17.7602 135.095 17.6179C134.017 17.2857 132.905 16.9378 131.843 16.5266C130.133 15.8782 127.859 15.1033 125.453 14.9452C125.038 14.9135 124.623 14.8503 124.175 14.7712C123.129 14.5972 122.051 14.4233 120.939 14.7712C119.893 14.4707 118.931 14.6921 118.001 14.9135C117.404 15.0559 116.839 15.1824 116.258 15.1666C115.462 15.1349 114.682 15.2931 113.935 15.4354C113.62 15.4987 113.304 15.5619 112.989 15.6094C112.64 15.6568 112.275 15.7043 111.927 15.7517C111.097 15.8624 110.217 15.9731 109.371 16.1629C108.541 16.3527 107.728 16.5899 106.931 16.8271C106.5 16.9536 106.068 17.0802 105.637 17.2067C105.537 17.2383 105.388 17.2383 105.238 17.2225C104.243 17.096 103.33 17.349 102.334 17.9816C102.168 18.0923 102.002 18.1872 101.82 18.2821C101.703 18.3453 101.587 18.4244 101.471 18.4877C101.139 18.6933 100.791 18.883 100.442 19.057C99.2638 19.6896 98.0522 20.338 97.239 21.5716C97.2058 21.619 97.073 21.6981 97.0232 21.7139C96.1768 21.7614 95.6789 22.2674 95.2972 22.6628L95.1976 22.7735C95.1146 22.8526 95.0317 22.9475 94.9487 23.0424C94.7661 23.2479 94.5836 23.4377 94.401 23.5326C93.4882 24.0229 93.0733 24.7662 92.7746 25.4304C92.6252 25.7625 92.4758 25.9839 92.343 26.063C91.9447 26.316 91.7788 26.6481 91.6626 26.917C91.6294 26.9961 91.5796 27.091 91.5298 27.17C91.0817 27.8817 90.617 28.625 90.5672 29.5897C90.5174 29.6213 90.4345 29.6846 90.3017 29.7637C90.1689 29.8269 90.003 29.8902 89.837 29.9376C89.754 29.9693 89.6544 29.9851 89.5714 30.0167C89.3723 30.08 89.2395 30.2539 89.2229 30.4437C89.2063 30.586 89.2063 30.7442 89.2063 30.8865C89.2063 30.9656 89.2063 31.0763 89.2063 31.1396C88.2271 31.8512 88.2271 32.8476 88.2271 33.6541V33.7806C88.2271 33.7806 88.1442 34.002 88.0944 34.1286L88.028 34.2551C87.8288 34.6505 87.6297 35.0458 87.4139 35.4412C87.3143 35.631 87.1982 35.8208 87.0986 36.0105C86.8994 36.3585 86.7003 36.7064 86.5177 37.0701C86.3517 37.3864 86.2356 37.7344 86.136 38.0823C86.0364 38.446 85.9368 38.8098 85.8373 39.1735C85.5717 40.1224 85.2896 41.1029 85.1734 42.0993C85.107 42.6528 84.9742 43.2063 84.8415 43.7756C84.6589 44.5347 84.4763 45.3255 84.4432 46.1637C84.41 46.9702 84.2606 47.761 84.1112 48.5992C83.9784 49.3266 83.8457 50.0858 83.7793 50.8449L83.7461 51.2086C83.6133 52.9799 83.464 54.8144 84.4597 56.5066C84.1942 57.3131 84.3602 58.0723 84.5095 58.7523C84.5593 58.9579 84.6091 59.1793 84.6423 59.3849C84.9244 61.1878 85.3228 63.2912 86.219 65.2838C86.4015 65.695 86.5675 66.1062 86.7335 66.5016C86.999 67.15 87.2811 67.8142 87.5965 68.4468C87.7956 68.8422 88.0114 69.2059 88.2437 69.5697C88.5259 70.0125 88.7914 70.4395 88.9574 70.8823C89.4885 72.1949 90.1523 73.5392 91.4966 74.5513L91.7788 74.7569C92.1937 75.0574 92.5754 75.3421 92.8741 75.6742C93.7537 76.6705 94.9487 77.1291 96.0109 77.4296C96.6747 77.6194 97.3552 77.7143 98.0854 77.8092C98.4173 77.8566 98.7659 77.9041 99.1476 77.9673C99.2638 77.9831 99.3965 77.9673 99.5127 77.9041L99.8114 77.7459L100.641 78.2046C100.89 78.3311 101.189 78.2678 101.355 78.0622C101.405 77.9832 101.454 77.9199 101.504 77.8566C101.587 77.7459 101.637 77.6669 101.703 77.6036C101.703 77.5878 101.737 77.572 101.753 77.5562C102.152 78.0464 102.815 78.2994 103.413 78.1887C103.878 78.1097 104.226 77.825 104.359 77.4138C104.492 77.0184 104.757 76.8761 105.238 76.6547C105.404 76.5756 105.554 76.5124 105.72 76.4175C105.803 76.37 105.886 76.3226 105.985 76.291C106.467 76.0537 107.147 75.7216 107.197 74.7727C107.247 74.662 107.595 74.3932 107.761 74.2825L107.927 74.156C108.01 74.0927 108.159 74.0294 108.292 73.9662C108.558 73.8555 108.873 73.729 109.089 73.4601C109.172 73.3652 109.238 73.2703 109.321 73.1596C109.836 72.5112 110.151 72.1317 110.831 72.1158C111.163 72.1158 111.379 71.8786 111.529 71.7205C111.562 71.6888 111.595 71.6414 111.628 71.6098C111.91 71.4042 112.192 71.1828 112.474 70.9772L112.856 70.7083C113.055 70.566 113.122 70.2971 113.006 70.0757C112.757 69.5697 112.906 69.4273 113.47 68.9687C113.819 68.684 114.201 68.3677 114.416 67.8775C114.449 67.8142 114.466 67.7351 114.449 67.6561L114.416 67.0235C114.416 67.0235 114.466 66.9918 114.499 66.9602C114.715 66.8021 114.914 66.6597 115.113 66.5332C115.246 66.4541 115.412 66.4067 115.561 66.3909C115.644 66.3909 115.761 66.3909 115.893 66.4225C116.192 66.4699 116.574 66.5174 116.889 66.3118C117.254 66.0904 117.536 65.695 117.785 65.0782C117.902 64.7778 118.084 64.4773 118.267 64.161C118.632 63.5442 118.997 62.9116 119.063 62.105C119.096 62.0576 119.163 62.0101 119.196 61.9785C119.561 61.6306 119.926 61.2827 120.308 60.9189L120.474 60.7608L120.922 60.9822C121.088 61.0613 121.271 61.0613 121.437 60.9822C121.603 60.9031 121.702 60.745 121.702 60.571V60.3021C121.735 60.144 121.735 60.0175 121.752 59.891C121.835 58.9737 121.951 58.183 122.515 57.5504C122.549 57.5187 122.582 57.4871 122.615 57.4713C122.665 57.5345 122.731 57.6136 122.781 57.6611C122.897 57.7876 123.08 57.835 123.262 57.8192C123.445 57.7876 123.594 57.6769 123.66 57.5187C123.76 57.2973 123.843 57.0759 123.926 56.8703C124.042 56.5224 124.192 56.1428 124.358 56.0321C125.071 55.5893 125.387 55.0358 125.718 54.5139L125.951 54.1502C126.15 53.8497 126.366 53.5018 126.382 52.9957C126.399 52.9641 126.482 52.8692 126.681 52.711L126.864 52.5687C127.411 52.1259 128.108 51.5882 128.042 50.576C128.042 50.576 128.042 50.5602 128.059 50.5444C128.324 50.2281 128.59 49.9276 128.839 49.6113C129.32 49.042 129.818 48.4726 130.282 47.8717C130.598 47.4763 130.797 47.0335 130.98 46.5907C131.062 46.4009 131.096 46.2111 131.129 46.0372L131.876 45.9897C131.992 45.9897 132.091 45.9423 132.174 45.879C132.44 45.6734 132.606 45.4046 132.755 45.1673C132.755 45.5153 132.789 45.8632 132.871 46.2269C133.17 47.5396 133.187 48.7099 132.921 49.9118C132.805 50.4653 132.872 51.0188 132.954 51.5565C132.988 51.7779 133.021 51.9994 133.037 52.2208C133.037 52.4738 133.087 52.7268 133.12 52.9799C133.187 53.5334 133.253 54.0553 133.17 54.5455C132.954 55.7949 133.071 56.7754 133.535 57.7085C133.618 57.8983 133.668 58.1513 133.618 58.3411C133.32 59.7803 133.436 61.2036 133.585 62.5162C133.668 63.3228 133.718 64.1452 133.768 64.9517C133.801 65.442 133.817 65.9164 133.851 66.4067C133.9 67.1658 133.983 67.9249 134.05 68.684L134.1 69.2059C134.1 69.3641 134.133 69.5222 134.166 69.6804C134.216 69.9334 134.249 70.1864 134.232 70.392C134.232 70.5185 134.199 70.6451 134.166 70.7716C134.083 71.1828 133.983 71.6572 134.183 72.2265C134.249 72.4163 134.232 72.6535 134.149 72.8117C134.1 72.9066 134.033 72.954 133.934 72.9857C133.668 73.0647 133.502 73.3178 133.569 73.5866L133.685 74.1243C133.768 74.5039 133.851 74.8518 133.917 75.1997C133.967 75.4211 133.983 75.6584 134.017 75.8798C134.05 76.291 134.116 76.6863 134.183 77.0975C134.315 77.999 134.448 78.8372 134.349 79.6437C134.216 80.7508 134.315 81.8103 134.398 82.8541C134.481 83.7872 134.564 84.6728 134.481 85.5585C134.448 85.8748 134.548 86.3018 134.813 86.5548C135.046 86.7762 135.079 87.0767 135.129 87.5353C135.178 88.0098 135.228 88.5791 135.66 89.0535C135.394 89.4647 135.527 89.8601 135.61 90.0973C135.627 90.1606 135.66 90.2238 135.676 90.2871C135.743 90.6667 135.842 91.0304 135.942 91.3941C136.158 92.2007 136.373 92.9756 136.274 93.7664C136.191 94.4464 136.39 94.9999 136.871 95.506C137.087 95.7432 137.27 96.2019 137.253 96.5972C137.253 97.5778 137.303 98.8746 137.867 100.171C138.016 100.535 138.083 100.946 138.166 101.389C138.216 101.674 138.265 101.974 138.332 102.259C138.547 103.113 138.78 103.967 139.012 104.805C139.128 105.216 139.245 105.628 139.344 106.039C139.361 106.118 139.394 106.213 139.427 106.292C139.444 106.355 139.477 106.45 139.493 106.497C139.095 107.715 139.626 108.68 140.091 109.534C140.174 109.676 140.257 109.818 140.323 109.977C140.406 110.151 140.605 110.261 140.805 110.261H141.95C141.95 110.419 141.834 110.578 141.668 110.831C141.452 111.163 141.186 111.558 141.203 112.096C141.203 112.301 141.336 112.475 141.535 112.554L142.929 113.108C143.095 113.171 143.294 113.155 143.443 113.06C143.593 112.966 143.742 112.855 143.875 112.744C143.941 112.681 144.041 112.602 144.124 112.554C144.157 112.618 144.207 112.681 144.24 112.728C144.323 112.871 144.406 112.997 144.489 113.124C144.605 113.282 144.788 113.361 144.987 113.345C145.518 113.292 146.077 113.398 146.663 113.661L146.73 113.693C147.045 113.835 147.543 113.899 147.875 113.693C148.041 113.582 148.157 113.551 148.539 113.741C148.721 113.835 148.97 113.883 149.219 113.883C149.435 113.883 149.65 113.835 149.833 113.725C150.231 113.472 150.58 113.44 151.045 113.598C151.393 113.709 151.791 113.661 152.074 113.472C152.356 113.282 152.488 112.966 152.472 112.602C152.472 112.523 152.472 112.475 152.472 112.428C152.522 112.428 152.588 112.46 152.688 112.507C153.385 112.807 153.766 112.428 154.015 112.191C154.43 111.795 154.895 111.447 155.376 111.068C155.592 110.894 155.824 110.736 156.057 110.546C156.189 110.435 156.422 110.261 156.472 109.977C156.571 109.391 157.003 109.123 157.799 108.79C157.949 108.727 158.048 108.617 158.098 108.474C158.148 108.332 158.131 108.174 158.048 108.047L157.899 107.81C158.015 107.842 158.131 107.873 158.264 107.873C158.513 107.905 158.745 107.715 158.812 107.494C158.861 107.32 158.895 107.146 158.928 106.972C158.994 106.655 159.044 106.339 159.193 106.165C159.343 105.975 159.642 105.833 159.89 105.722C160.007 105.659 160.123 105.612 160.206 105.564C160.305 105.501 160.388 105.406 160.438 105.295L161.102 103.572C161.152 103.461 161.152 103.319 161.102 103.208L160.836 102.544L161.915 102.101C162.114 102.022 162.231 101.832 162.247 101.642C162.247 100.899 162.28 100.266 162.363 100.156C162.38 100.156 162.43 100.124 162.496 100.108C162.496 100.108 162.496 100.108 162.496 100.124C162.596 100.44 162.795 101.089 163.658 101.152C163.807 101.152 163.957 101.12 164.073 101.01C164.189 100.915 164.239 100.772 164.239 100.63V100.345C164.239 100.187 164.239 100.029 164.239 99.8867V99.7602C164.305 98.922 164.355 98.7481 164.969 98.7006C165.4 98.669 165.699 98.3685 165.981 98.1155C166.081 98.0206 166.181 97.9257 166.297 97.8466C166.446 97.7201 166.529 97.5303 166.496 97.3405C166.463 97.1507 166.313 97.0084 166.131 96.9452C165.417 96.7396 165.218 96.6289 165.185 96.5972C165.185 96.5972 165.185 96.5656 165.185 96.4865C165.235 96.1702 165.865 96.107 166.479 96.1702C166.645 96.186 166.828 96.1228 166.944 96.0121C167.575 95.3637 167.94 94.7311 168.089 94.0352C168.238 93.972 168.404 93.8771 168.487 93.6715C168.869 92.8175 169.251 91.9318 170.047 91.2993C170.396 91.0146 170.429 90.5243 170.462 90.1448V90.0815C170.545 89.0852 170.612 88.4526 171.276 87.994C171.608 87.7567 171.641 87.3297 171.657 87.0609C171.657 86.8711 171.657 86.6813 171.657 86.4915C171.657 86.3176 171.657 86.1436 171.657 85.9538C171.691 85.5901 171.707 85.5585 172.022 85.4952C172.437 85.4161 172.935 85.258 173.201 84.8626C173.5 84.4198 173.4 83.8663 173.267 83.2969C173.267 83.2337 173.234 83.1704 173.217 83.1072C173.184 82.9648 173.151 82.8541 173.134 82.7751L173.317 82.9174C173.483 83.0439 173.682 83.0597 173.865 82.9806C174.047 82.9016 174.18 82.7276 174.18 82.5378L174.296 80.7191C174.595 80.8456 174.827 80.8773 175.076 80.7824C175.475 80.64 175.607 80.2763 175.823 79.7386L175.856 79.6595C175.956 79.3907 176.138 79.1376 176.338 78.8213C176.437 78.6632 176.553 78.505 176.653 78.3153C176.752 78.1571 176.752 77.9673 176.653 77.7934L175.923 76.5914C176.487 76.1328 176.603 75.4844 176.686 74.9783C176.719 74.8044 176.752 74.6304 176.786 74.4881C176.802 74.4881 176.819 74.4881 176.852 74.4881C177.284 74.4406 177.549 73.8555 178.279 73.7764C178.329 73.7764 178.346 73.8397 178.379 73.8871C178.777 74.3457 179.192 74.7411 179.64 75.1839C179.756 75.2946 179.873 75.4211 179.989 75.5318C179.989 75.5318 179.989 75.5477 179.989 75.5635C179.607 76.971 179.557 77.2399 180.005 78.5367C180.204 79.0902 180.42 79.6437 180.636 80.1814C181.134 81.3992 181.599 82.5378 181.765 83.7872C181.798 84.0561 181.98 84.2616 182.13 84.3882C182.495 84.7361 182.594 85.2105 182.711 85.7482C182.744 85.8906 182.777 86.0329 182.81 86.1752C182.827 86.2701 182.843 86.365 182.877 86.4599C182.926 86.6971 182.976 86.966 183.092 87.219C183.723 88.5791 184.403 90.208 184.586 91.9951C184.636 92.517 184.802 93.1812 185.532 93.7189C185.698 93.8454 185.864 94.1934 185.88 94.478C185.93 95.1265 186.129 95.68 186.495 96.2019C186.627 96.3916 186.727 96.613 186.843 96.8503C186.959 97.1033 187.092 97.3563 187.258 97.6094C187.391 97.815 187.772 98.3052 188.32 98.495C188.669 98.6215 189.017 98.6373 189.333 98.6373C189.465 98.6373 189.598 98.6373 189.714 98.6532C190.826 98.7639 191.49 99.0011 191.822 99.8393C191.971 100.219 192.237 100.535 192.486 100.82C192.569 100.931 192.668 101.025 192.735 101.136C192.818 101.247 192.951 101.326 193.083 101.342C193.316 101.373 193.548 101.437 193.78 101.484C194.61 101.69 195.639 101.927 196.486 101.199L197.614 101.5C197.896 101.579 198.178 101.421 198.278 101.168C198.344 100.962 198.411 100.741 198.461 100.551C198.527 100.298 198.593 99.9816 198.693 99.9025C199.29 99.3965 199.407 98.8113 199.44 98.2736L199.838 98.1787C199.987 98.1471 200.12 98.0364 200.187 97.8941C200.253 97.7517 200.253 97.5936 200.187 97.4512C200.104 97.2773 200.004 97.1033 199.904 96.9293C199.738 96.6605 199.589 96.3916 199.589 96.2019C199.556 95.3162 199.904 94.4148 200.635 93.5291C201.083 92.9914 201.431 92.3589 200.967 91.4416C200.718 90.9513 200.718 90.7299 200.917 90.4769C201.647 89.6387 201.846 88.6582 201.913 87.7567C202.012 87.7725 202.112 87.7884 202.228 87.8042H202.377C202.659 87.8674 202.925 87.6935 202.991 87.4246C202.991 87.3772 203.025 87.3297 203.025 87.2823C203.074 87.1399 203.141 86.9027 203.025 86.6655C202.942 86.4915 202.842 86.3492 202.742 86.2069C202.643 86.0645 202.493 85.8589 202.493 85.7641C202.493 85.6059 202.61 85.3687 202.742 85.1473C202.825 84.9733 202.925 84.7994 202.991 84.6096C203.058 84.4198 203.058 84.2458 203.074 84.0877C203.074 84.0244 203.074 83.9612 203.074 83.9137C203.074 83.8663 203.091 83.803 203.091 83.7556C203.091 83.7081 203.091 83.6607 203.108 83.6132C203.672 83.2021 203.705 82.6327 203.738 82.2215C203.738 82.1108 203.738 82.0001 203.771 81.8894V81.7629C203.854 81.415 203.921 80.9722 204.087 80.7824C204.734 80.0707 204.966 79.3749 204.8 78.505C204.751 78.2678 204.651 77.7143 204.751 77.5878C205 77.2399 205.116 76.8445 205.232 76.5124C205.331 76.1961 205.431 75.8798 205.614 75.6742C206.078 75.1365 206.327 74.5671 206.56 73.9978C206.676 73.7131 206.792 73.4443 206.941 73.1912C207.638 71.9419 207.788 70.6292 207.954 69.3641C208.02 68.7789 208.086 68.2254 208.203 67.6719L208.236 67.5137C208.269 67.3872 208.302 67.2291 208.319 67.15C208.369 67.15 208.452 67.15 208.551 67.15C208.618 67.4663 208.767 68.0514 209.481 68.2254C209.514 68.2886 209.547 68.3835 209.58 68.431L209.746 68.8105C209.895 69.1268 210.028 69.4115 210.095 69.6962C210.178 70.139 210.393 70.5185 210.559 70.8665C210.825 71.3884 210.991 71.7205 210.841 71.9893C210.759 72.1317 210.759 72.3056 210.841 72.4638C211.007 72.7801 211.157 73.0647 211.306 73.3494C211.638 73.9504 211.92 74.4881 212.186 75.0258C212.319 75.2946 212.418 75.5635 212.534 75.8481C212.684 76.2277 212.833 76.6073 213.032 76.9868C213.182 77.2557 213.348 77.4771 213.514 77.6985C213.928 78.252 214.177 78.6157 214.045 79.1376C213.978 79.4539 214.161 79.6912 214.294 79.8809C214.775 80.5293 215.24 81.1778 215.754 81.8736L216.003 82.2057C215.405 83.2969 216.053 84.0086 216.517 84.3407C216.999 84.6887 217.331 85.1947 217.613 85.9855C217.729 86.3176 218.111 86.8711 218.642 86.9344C219.189 86.9976 219.438 87.219 219.621 87.8674C219.704 88.1521 219.903 88.3735 220.069 88.5633C220.135 88.6424 220.202 88.7214 220.268 88.8005C220.301 88.8638 220.351 88.927 220.401 88.9903C220.451 89.0535 220.534 89.1801 220.567 89.2433C220.285 91.062 221.795 92.0426 222.525 92.517C222.642 92.5803 222.758 92.7226 222.89 92.8491C223.256 93.2129 223.886 93.8613 224.766 93.5291C225.148 93.9403 225.646 94.1459 226.06 94.3199C226.509 94.5097 226.807 94.6362 226.923 94.8892C227.023 95.079 227.206 95.1897 227.438 95.1739C227.786 95.1739 228.118 95.1423 228.467 95.1106C229.712 95.0157 230.774 94.9525 231.67 95.3953C231.819 95.4586 231.985 95.4744 232.135 95.4111C232.433 95.2846 232.616 95.0948 232.749 94.8892C232.882 95.4586 233.114 95.8856 233.496 96.1544C234.093 96.5656 234.906 96.4549 235.686 96.2809C235.819 96.2493 235.935 96.186 236.002 96.0753C236.101 96.1386 236.234 96.1702 236.35 96.1544L239.487 95.7907C239.653 95.7749 239.819 95.6642 239.902 95.5218C239.985 95.3795 239.985 95.2055 239.902 95.0474C239.786 94.826 239.952 94.3357 239.952 94.3357C239.952 94.5255 240.068 94.6836 240.25 94.7627C240.416 94.8418 240.632 94.8418 240.798 94.7311L243.122 93.3236C243.271 93.2287 243.37 93.0705 243.37 92.8966C243.37 92.7226 243.287 92.5644 243.138 92.4696L242.74 92.2165H242.806C242.873 92.2165 243.138 92.4063 243.354 92.5486C243.57 92.7068 243.885 92.6751 244.068 92.4854L247.769 88.6582C247.934 88.4842 247.968 88.2312 247.835 88.0414C247.769 87.9465 247.702 87.8832 247.603 87.8516L248.88 87.1241C249.08 87.0134 249.179 86.792 249.129 86.5706C249.08 86.3492 248.897 86.1911 248.665 86.1594C248.582 86.1594 250.241 86.0171 250.241 86.0171C250.391 86.0171 250.54 85.938 250.64 85.8273L251.32 85.0524C251.47 84.8942 251.486 84.657 251.37 84.4672C250.872 83.6132 251.27 83.0913 251.652 83.0755C252.067 83.0597 252.449 82.9332 252.814 82.8067C252.963 82.7592 253.113 82.7118 253.279 82.6643C253.494 82.6011 253.644 82.4429 253.677 82.2373C253.71 82.0318 253.61 81.8262 253.411 81.7313L253.179 81.6047L253.494 81.1619C253.561 81.0512 253.594 80.9405 253.594 80.814L253.494 80.0075C254.208 80.0075 255.104 79.8809 255.403 78.8846C255.702 78.7265 255.984 78.5525 256.282 78.3943C256.531 78.252 256.614 77.9673 256.498 77.7143L256.382 77.5087C256.382 77.5087 256.332 77.4296 256.299 77.398C256.814 77.224 257.245 76.8445 257.577 76.2593C257.66 76.1328 257.66 75.9747 257.61 75.8323C257.56 75.69 257.444 75.5793 257.295 75.5318C257.245 75.516 257.195 75.5002 257.146 75.4844L257.511 75.0258C257.76 74.7095 258.025 74.3932 258.291 74.0769C258.39 73.9662 258.457 73.8871 258.457 73.8871C259.784 73.6499 259.751 72.5745 259.751 72.2107C259.751 71.7679 259.867 71.6098 260.299 71.5623C260.813 71.5149 261.212 71.1195 261.51 70.8348C261.842 70.5027 262.141 70.1548 262.44 69.8069L262.689 69.5064C262.855 69.3008 263.021 69.0952 263.17 68.8896C263.419 68.5417 263.684 68.1779 263.95 67.7984C264.199 68.2254 264.431 68.6366 264.713 69.0319C264.879 69.2534 265.045 69.4906 265.195 69.712C265.925 70.7083 266.605 71.6414 266.722 72.8275C266.738 73.0647 266.854 73.2545 266.954 73.4127L267.303 73.9978C267.734 74.7253 268.149 75.437 268.597 76.1486C268.697 76.3068 268.796 76.4807 268.879 76.6547C269.178 77.1924 269.477 77.7459 269.991 78.1097C270.174 78.252 270.306 78.4734 270.456 78.7264C270.672 79.1218 270.937 79.5963 271.501 79.8335C271.402 81.2094 272.331 82.0476 273.078 82.7434C273.46 83.1072 273.858 83.4709 274.24 83.8346L274.588 84.1668L274.456 84.9891C274.422 85.2105 274.539 85.4319 274.754 85.5268L275.368 85.8115C275.816 86.0171 276.231 86.2069 276.663 86.3967C276.729 86.4283 276.829 86.4599 276.912 86.4915C276.962 86.5074 277.028 86.539 277.078 86.5548C277.41 87.4246 278.19 87.5986 278.704 87.7093C278.771 87.7093 278.837 87.7409 278.903 87.7567L279.783 89.6545C279.849 89.7968 279.982 89.8917 280.132 89.9392C280.281 89.9866 280.447 89.955 280.58 89.8759C280.696 89.7968 280.812 89.7178 280.912 89.6387C281.011 89.5596 281.177 89.4331 281.227 89.4331C281.227 89.4331 281.26 89.4331 281.343 89.5122C281.692 89.8127 282.09 90.0341 282.472 90.2397C282.621 90.3187 282.754 90.3978 282.887 90.4769C282.953 90.5401 283.019 90.6667 283.086 90.7774C283.235 91.0304 283.418 91.3309 283.75 91.5048C283.965 91.6156 284.164 91.7421 284.397 91.8844C284.828 92.1691 285.293 92.4696 285.924 92.6119C286.09 92.6435 286.289 92.77 286.488 92.8966C286.903 93.1496 287.451 93.4975 288.214 93.3236C288.695 93.6715 289.177 94.0194 289.575 94.3199L289.94 94.5887C290.073 94.6836 290.239 94.7153 290.405 94.6836C290.62 94.6362 290.836 94.5571 291.035 94.4939C291.152 94.4464 291.318 94.399 291.434 94.3673C291.882 94.6994 292.38 94.7785 292.795 94.826C293.01 94.8576 293.226 94.8892 293.392 94.9525C293.575 95.0157 293.757 95.1106 293.956 95.2055L294.305 95.3637C294.471 95.4427 294.67 95.4269 294.819 95.332L294.886 95.3004C295.4 94.9999 295.533 94.9525 295.815 95.2688C296.114 95.6009 296.678 95.5218 296.794 95.506C297.043 95.4586 297.292 95.4111 297.541 95.3479C298.271 95.1739 298.885 95.0157 299.566 95.332C299.981 95.5218 300.379 95.332 300.728 95.1423C300.877 95.0632 301.06 94.9683 301.176 94.9525C301.325 94.9367 301.524 94.9525 301.723 94.9841C301.923 95.0157 302.138 95.0316 302.371 95.0316C302.752 95.0316 303.118 94.905 303.466 94.7943L303.599 94.7469C303.964 94.6362 304.412 94.5097 304.545 94.0985C304.628 93.8296 304.545 93.5766 304.462 93.371C304.495 93.3552 304.528 93.3236 304.545 93.3077C304.91 93.0547 305.341 92.77 305.524 92.3114C305.806 91.5839 306.321 91.0937 306.885 90.5876C307.267 90.2397 307.416 89.7494 307.549 89.3066C307.599 89.1484 307.648 88.9903 307.698 88.848C307.731 88.7531 307.848 88.6898 308.03 88.5791C308.329 88.4051 308.727 88.1679 308.91 87.6302C308.976 87.4562 309.026 87.2665 309.076 87.0767C309.242 86.4757 309.374 85.9696 309.856 85.5901C310.984 84.7045 311.316 83.5658 310.818 82.3639C311.084 82.1425 311.25 81.8578 311.383 81.6206C311.632 81.1778 311.681 81.1461 311.897 81.1778C312.146 81.2094 312.362 81.0829 312.445 80.8773C312.528 80.7033 312.594 80.5452 312.677 80.4028C312.843 80.0549 313.009 79.7386 313.109 79.3907C313.208 79.0427 313.258 78.6948 313.308 78.3627C313.324 78.2204 313.358 78.0622 313.374 77.9041C313.889 77.3664 313.955 76.7338 314.005 76.1803C314.005 76.0221 314.038 75.864 314.071 75.7058C314.121 75.4053 314.121 75.1207 314.104 74.836C314.088 74.1401 314.104 73.7922 314.636 73.5234C315.034 73.3336 315.05 72.8908 315.05 72.527V72.4005C315.067 72.1158 315.1 71.8312 315.117 71.5623C315.216 70.3288 315.316 69.0478 315.084 67.7509L314.851 67.7826ZM256.216 61.1878C256.216 61.1878 256.166 61.2194 256.15 61.2352C255.834 61.5041 255.502 61.7887 255.22 62.1209C254.905 62.5162 254.689 62.9432 254.473 63.3702C254.407 63.4809 254.357 63.6075 254.291 63.7182C254.241 63.813 254.175 63.9079 254.125 64.0186C253.926 64.3507 253.71 64.7145 253.66 65.1415C253.494 66.5648 252.664 67.5453 251.353 68.6682C251.138 68.8422 250.988 69.0478 250.822 69.2375C250.673 69.4273 250.524 69.6171 250.358 69.7278C250.092 69.9176 249.959 69.9334 249.943 69.9176C249.926 69.9176 249.81 69.8227 249.727 69.5064C249.727 69.4748 249.727 69.4273 249.727 69.3957C249.727 69.2059 249.694 68.858 249.362 68.6998C249.08 68.5733 249.046 68.5575 249.229 68.0198C249.262 67.9249 249.295 67.8458 249.312 67.7509C249.329 67.6877 249.345 67.6244 249.378 67.5612C249.528 67.1342 249.86 66.1695 248.715 65.6634C248.698 65.5843 248.665 65.4578 248.648 65.3629C248.648 65.3471 248.648 65.3313 248.648 65.2996C248.764 65.2364 248.864 65.1889 248.98 65.1257C249.611 64.8094 249.843 64.24 249.594 63.5758C249.246 62.6427 249.345 61.7413 249.461 60.7133C249.478 60.5394 249.495 60.3654 249.528 60.1756C249.561 59.7803 249.677 59.3849 249.777 58.9579C250.009 58.0723 250.241 57.155 249.943 56.127C249.876 55.9214 249.926 55.6526 249.976 55.3205L250.424 55.4628C250.59 55.5102 250.789 55.4786 250.922 55.3837L252.465 54.2292C252.615 54.1185 252.698 53.9129 252.664 53.739C252.615 53.5018 252.565 53.1855 252.565 53.138C252.615 53.0748 252.93 52.9166 253.229 52.7743L253.378 52.6952C253.909 52.4422 254.308 51.8728 254.49 51.43C254.689 50.9398 254.938 50.8449 255.718 50.8765C256.581 50.9239 257.162 51.177 257.627 51.7305C257.843 51.9835 258.125 52.1417 258.374 52.284C258.407 52.2998 258.44 52.3156 258.473 52.3473C258.523 53.2962 258.208 54.8935 257.793 55.8898C257.693 56.1428 257.627 56.3801 257.577 56.6331C257.544 56.8229 257.494 57.0127 257.428 57.1708L257.345 57.3922C257.162 57.8508 256.98 58.3095 256.697 58.6574C255.851 59.6696 255.652 60.1282 256.199 61.2036L256.216 61.1878ZM123.362 39.8219C122.416 40.581 122.034 41.5932 121.686 42.5737C121.569 42.9058 121.453 43.2063 121.32 43.5068C121.304 43.5384 121.204 43.6175 121.138 43.6807C121.055 43.744 120.972 43.8231 120.905 43.9021C120.822 43.9812 120.756 44.0603 120.673 44.1394C120.109 44.7087 119.462 45.3571 119.428 46.3693C119.412 46.4009 119.362 46.4642 119.329 46.5116C119.296 46.559 119.246 46.6065 119.213 46.6539L119.03 46.907C118.715 47.3498 118.399 47.8084 118.051 48.2354C117.802 48.5517 117.586 48.7889 117.37 48.9787L117.221 49.1052C116.242 49.9276 115.246 50.7658 114.947 52.1891V52.2049C114.25 52.5845 113.902 53.1855 113.586 53.7232C113.371 54.0869 113.172 54.4348 112.889 54.6721C112.043 55.3995 111.578 56.2061 111.429 57.1708C111.396 57.3448 111.23 57.5978 111.047 57.756C110.831 57.9141 110.583 58.0723 110.3 58.2304C109.769 58.5309 109.238 58.8314 108.906 59.3374C108.74 59.5905 108.491 59.8277 108.226 60.0649C107.711 60.5077 107.147 61.0138 107.031 61.8836C106.998 61.9153 106.931 61.9627 106.882 61.9943C106.666 62.1525 106.384 62.3423 106.301 62.6744C106.118 63.4177 105.587 63.6549 104.641 64.0186C104.276 64.161 103.944 64.4456 103.778 64.7461C103.562 65.1731 103.181 65.4262 102.749 65.7425C102.633 65.8215 102.517 65.9006 102.4 65.9955C101.82 66.4225 101.272 66.8969 100.757 67.3556C100.409 67.6561 100.06 67.9723 99.6953 68.2728C99.0812 68.7789 98.5169 69.1585 97.9858 69.4748C97.3884 69.8227 97.0398 69.7911 96.376 69.3008C95.4798 68.6524 95.0649 67.7193 94.6997 66.5332C94.4176 65.5843 94.1686 64.6038 93.9363 63.6391C93.8201 63.133 93.6874 62.6269 93.5546 62.1209C93.1729 60.6501 93.3222 59.1635 93.4716 57.6136C93.5048 57.2499 93.538 56.8861 93.5712 56.5224C93.704 54.7986 93.9529 53.0906 94.1687 51.7938C94.3346 50.7342 94.6168 49.7062 94.8657 48.8364C94.9155 48.8047 94.9985 48.7415 95.0649 48.694C95.181 48.6308 95.2972 48.5517 95.3968 48.4568C95.5793 48.3145 95.6457 48.0615 95.5462 47.8559L95.2308 47.16C96.0606 46.4167 96.5917 45.4362 96.8739 44.1394C96.9568 43.7914 97.156 43.4277 97.3884 43.0481C97.5875 42.716 97.8033 42.3523 97.936 41.9727C98.6829 39.8219 99.9608 37.9716 101.322 36.0422L101.537 35.7259C101.803 35.3463 102.085 34.9351 101.969 34.2393C101.936 34.0969 101.969 34.002 101.986 33.9704C102.002 33.9546 102.069 33.923 102.235 33.9388C102.649 33.9862 103.064 33.749 103.297 33.5118C104.077 32.6894 104.591 31.788 104.824 30.7284C104.89 30.4595 105.288 30.0641 105.803 29.7637C106.317 29.479 106.865 29.2101 107.413 28.9571C108.342 28.5301 109.288 28.0715 110.101 27.4389C110.317 27.2649 110.516 27.0751 110.715 26.8854C111.28 26.3635 111.711 25.9523 112.458 25.9523C112.69 25.9523 112.889 25.81 112.972 25.6044C113.006 25.5411 113.022 25.5095 113.022 25.5095C113.072 25.5095 113.221 25.5095 113.338 25.5095H113.537C113.869 25.5095 114.167 25.4462 114.466 25.383C114.848 25.3039 115.213 25.2248 115.561 25.3039C116.026 25.3988 116.308 25.035 116.59 24.6713C116.607 24.6397 116.624 24.6238 116.657 24.5922L117.221 24.6238C118.051 24.6713 118.897 24.7345 119.76 24.7504C120.042 24.7504 120.275 24.6397 120.441 24.5448C120.507 24.5131 120.574 24.4815 120.607 24.4657C120.673 24.4657 120.723 24.4341 120.789 24.4182C120.889 24.3866 121.038 24.355 121.105 24.3392C121.42 24.4973 121.868 24.6713 122.349 24.529C122.532 24.4815 122.681 24.3866 122.831 24.2601C123.511 24.7345 124.241 24.782 124.889 24.8136H125.055C126.299 24.8927 127.478 25.3513 128.706 25.8574L129.054 25.9997C129.22 26.063 129.37 26.1263 129.519 26.2053C130.1 26.4584 130.747 26.7588 131.544 26.743C131.627 26.7588 131.859 26.9644 132.008 27.091C130.797 28.0398 130.1 29.1627 129.834 30.5386C129.818 30.6019 129.718 30.7126 129.668 30.7284C128.872 30.9498 128.523 31.4717 128.208 31.9461L128.108 32.1043C127.876 32.4364 127.627 32.7369 127.361 33.069C127.096 33.3853 126.83 33.7332 126.581 34.0811C126.333 34.4449 126.133 34.8244 125.951 35.204C125.884 35.3463 125.801 35.4886 125.735 35.631C125.669 35.7575 125.619 35.8682 125.552 35.9947C125.486 36.1212 125.42 36.2478 125.353 36.3743C125.254 36.5799 125.138 36.7696 125.021 36.9752L124.889 37.2125C124.822 37.3232 124.772 37.4339 124.723 37.5446C124.623 37.7344 124.54 37.9083 124.441 38.0348L124.374 38.0981C123.926 38.5567 123.428 39.0786 123.345 39.8694L123.362 39.8219Z" fill="#c99a55"/>
<path d="M61.7712 135.043C62.6674 134.853 63.381 134.537 63.9951 133.92C64.6092 133.303 64.5428 132.607 64.4432 131.848C64.3104 130.868 64.2274 130.631 63.2151 130.441C62.7338 130.346 62.2027 130.425 61.7048 130.52C61.2069 130.631 60.7422 130.899 60.2443 131.01C58.5017 131.421 56.7259 131.769 54.9832 132.18C52.4938 132.781 50.0541 133.588 47.4485 133.746C46.4527 133.809 45.9548 135.106 46.6684 135.818C47.4319 136.577 48.3115 137.241 49.2077 138.016C49.44 141.005 49.689 144.168 49.9379 147.315C49.9379 147.442 49.9379 147.568 49.9711 147.679C50.5022 149.118 50.5686 150.652 50.718 152.139C50.9669 154.59 51.249 157.01 51.9295 159.398C52.361 160.932 52.5602 161.137 54.2032 160.979C54.6347 160.948 55.0662 160.979 55.4977 160.916C56.0786 160.837 56.6595 160.71 57.174 160.616C57.3233 159.983 57.4727 159.508 57.5225 159.034C57.5557 158.639 57.5557 158.196 57.4063 157.832C56.5267 155.76 56.4935 153.578 56.4105 151.411C56.3939 150.81 56.6263 150.194 56.8254 149.608C56.9084 149.387 57.1906 149.134 57.4229 149.071C58.037 148.928 58.7008 148.928 59.3149 148.786C60.7422 148.486 62.1529 148.138 63.5636 147.79C64.1113 147.663 64.3104 147.347 64.2108 146.778C64.0781 145.971 64.0283 145.149 63.9287 144.2C63.2482 144.089 62.5678 143.836 61.9371 143.915C60.2775 144.121 58.6344 144.469 56.9748 144.753C56.6595 144.801 56.3275 144.753 55.9126 144.753C55.6969 143.773 55.4147 142.903 55.3318 142.017C55.1658 140.309 55.1326 138.585 55.033 136.783C55.1326 136.719 55.3152 136.593 55.4977 136.53C57.5723 135.992 59.6468 135.422 61.7546 134.995L61.7712 135.043Z" fill="#c99a55"/>
<path d="M115.792 137.352C114.946 137.099 114.033 137.035 113.153 136.94C113.037 136.94 112.871 137.209 112.755 137.383C111.909 138.664 111.51 140.009 111.776 141.574C111.992 142.839 111.892 144.168 111.859 145.465C111.826 147.236 111.759 148.991 111.676 150.763C111.61 152.502 111.66 154.274 111.162 155.966C111.062 155.997 110.963 156.029 110.863 156.061C110.432 155.46 110 154.874 109.569 154.258C109.071 153.546 108.606 152.803 108.125 152.075C107.843 151.664 107.544 151.253 107.278 150.826C106.681 149.83 106.083 148.833 105.519 147.821C104.955 146.809 104.341 145.813 103.876 144.769C103.478 143.867 103.278 142.887 102.947 141.954C102.631 141.084 102.183 140.42 101.088 140.135C99.5111 139.724 98.8307 139.914 98.2664 141.353C98.1834 141.574 98.117 141.827 98.117 142.08C98.0672 144.626 97.8183 147.173 98.283 149.719C98.4489 150.604 98.6149 151.49 98.6647 152.392C98.7809 154.606 98.8141 156.836 98.9302 159.05C98.9468 159.429 99.063 160.03 99.3285 160.157C100.424 160.679 101.021 161.659 101.868 162.418C102.432 162.924 102.814 162.877 103.229 162.387C103.196 161.865 103.162 161.374 103.146 160.884C103.063 159.366 102.996 157.848 102.88 156.329C102.781 154.859 102.631 153.372 102.532 151.901C102.498 151.474 102.382 150.952 103.179 150.794C103.395 151.095 103.644 151.427 103.876 151.759C104.922 153.261 105.951 154.78 107.029 156.266C108.141 157.784 109.253 159.303 110.448 160.758C111.311 161.801 112.274 162.782 113.236 163.762C113.684 164.221 114.332 164.063 114.597 163.494C114.697 163.272 114.73 163.019 114.763 162.782C114.962 161.185 115.145 159.603 115.327 158.006C115.394 157.389 115.444 156.772 115.477 156.155C115.626 153.53 115.527 150.858 116.008 148.28C116.39 146.271 115.825 144.152 116.854 142.238C116.755 140.973 116.688 139.692 116.506 138.443C116.439 138.047 116.108 137.478 115.776 137.383L115.792 137.352Z" fill="#c99a55"/>
<path d="M88.5902 140.04C88.2914 138.791 87.8765 138.522 86.582 138.506C85.0883 138.506 84.1921 139.503 84.4245 140.91C84.5075 141.479 84.5904 142.049 84.6236 142.618C84.7896 145.022 85.2211 147.426 84.4079 149.814C83.6776 151.98 82.5325 153.862 80.7567 155.365C79.6945 156.266 79.1634 156.187 78.3004 155.128C78.1178 154.906 77.9021 154.669 77.8191 154.4C77.4042 153.119 76.9063 151.838 76.6408 150.51C76.0101 147.331 75.4624 144.12 74.9645 140.926C74.7156 139.36 74.0849 137.826 74.2841 136.197C74.3504 135.691 73.9687 135.375 73.4874 135.201C72.9066 134.98 72.3423 135.027 71.9606 135.486C71.4793 136.055 71.0976 136.688 70.7656 137.178C71.0146 137.858 71.2635 138.253 71.3133 138.68C71.4793 139.945 71.5457 141.211 71.695 142.476C71.7614 143.045 71.9274 143.599 72.0601 144.152C72.4419 145.797 73.0393 147.41 73.1887 149.071C73.3547 150.889 73.7364 152.629 74.3007 154.353C74.4334 154.78 74.6492 155.191 74.8981 155.57C76.0101 157.294 77.3876 158.797 79.263 159.856C80.1758 160.378 80.9558 160.394 81.8188 159.777C81.9848 159.651 82.1674 159.493 82.3665 159.461C83.2461 159.303 83.7938 158.718 84.3415 158.132C85.7854 156.567 86.6318 154.669 87.5114 152.803C88.5736 150.557 88.7893 148.122 88.8391 145.686C88.8557 144.453 88.8889 143.219 88.8557 141.985C88.8557 141.337 88.7727 140.689 88.6234 140.056L88.5902 140.04Z" fill="#c99a55"/>
<path d="M197.198 147.378C195.704 147.584 194.227 147.837 192.733 148.027C191.588 148.169 190.045 147.505 189.497 146.224C188.9 144.832 188.518 143.377 188.601 141.906C188.667 140.752 188.983 139.503 189.563 138.506C190.41 137.051 191.821 136.039 193.381 135.264C194.293 134.821 194.493 133.967 193.762 133.303C193.314 132.892 192.7 132.623 192.152 132.291C190.26 133.778 188.385 134.916 187.041 136.688C186.244 137.747 185.713 138.87 185.265 140.056C184.999 140.736 184.867 141.479 184.784 142.207C184.551 144.31 185.663 146.192 185.979 148.201C186.012 148.375 186.211 148.533 186.327 148.707C186.642 149.102 187.024 149.466 187.256 149.893C187.937 151.079 189.032 151.538 190.343 151.554C192.8 151.554 195.256 151.696 197.696 151.174C198.725 150.953 199.223 150.51 199.687 149.687C200.169 148.833 200.484 148.074 199.687 147.141C198.891 147.22 198.044 147.283 197.198 147.394V147.378Z" fill="#c99a55"/>
<path d="M217.064 124.795C216.466 124.368 215.686 124.052 214.956 123.925C214.442 123.846 213.761 124.083 213.313 124.399C212.699 124.826 212.251 125.459 211.736 126.013C212.135 127.357 212.251 128.828 213.91 129.492C214.757 129.191 215.67 128.954 216.499 128.559C218.259 127.705 218.524 125.839 217.047 124.795H217.064Z" fill="#c99a55"/>
<path d="M244.779 125.886C242.821 125.617 240.863 125.174 238.855 125.364C238.207 125.428 237.56 125.57 236.929 125.554C235.452 125.507 234.158 126.044 232.73 126.55C232.797 127.136 232.83 127.705 232.946 128.258C232.996 128.464 233.212 128.685 233.428 128.78C233.975 129.002 236.697 129.239 237.311 129.191C238.904 129.065 240.481 128.97 242.074 128.844C243.103 128.764 244.132 128.749 245.095 128.243C245.676 127.926 245.709 127.483 245.626 126.993C245.543 126.519 245.477 125.997 244.796 125.902L244.779 125.886Z" fill="#c99a55"/>
<path d="M275.368 138.997C275.235 137.937 275.019 136.83 275.185 135.818C275.434 134.394 275.052 133.335 274.04 132.354C273.559 131.88 272.662 131.579 272.098 131.801C271.617 131.991 271.318 132.781 271.368 133.445C271.384 133.841 271.384 134.331 271.169 134.616C270.505 135.501 270.621 136.466 270.571 137.447C270.505 139.155 270.14 140.847 270.405 142.571C270.422 142.681 270.372 142.808 270.355 142.934C270.04 144.595 269.907 146.271 270.156 147.964C270.189 148.137 270.123 148.327 270.057 148.833C269.575 148.311 269.26 148.011 269.011 147.663C267.949 146.176 266.903 144.674 265.841 143.172C264.596 141.4 263.385 139.597 262.107 137.842C261.294 136.735 260.431 135.644 259.535 134.616C258.921 133.904 258.19 133.983 257.858 134.821C257.294 136.197 256.68 137.573 256.846 139.091C256.979 140.436 257.194 141.78 257.344 143.124C257.377 143.44 257.311 143.773 257.261 144.089C257.194 144.611 257.029 145.117 257.045 145.639C257.078 147.315 257.211 149.007 257.244 150.684C257.261 151.664 257.178 152.661 257.178 153.641C257.194 154.827 258.672 156.061 259.667 155.776C260.73 155.476 261.526 154.337 261.476 153.214C261.393 150.826 261.31 148.438 261.244 146.066C261.244 145.528 261.31 144.99 261.344 144.437C262.057 145.085 262.539 145.749 263.02 146.414C263.468 147.015 264.049 147.568 264.314 148.232C264.596 148.976 265.011 149.592 265.493 150.241C266.688 151.838 267.667 153.594 269.277 154.875C269.492 155.049 269.658 155.317 269.775 155.586C270.189 156.488 271.086 156.741 271.949 156.962C272.247 157.041 272.762 157.01 272.928 156.82C273.675 155.966 274.637 155.207 274.422 153.847C273.99 151.126 274.704 148.438 274.969 145.749C275.185 143.504 275.65 141.258 275.368 138.981V138.997Z" fill="#c99a55"/>
<path d="M216.085 145.133C216.002 142.871 215.869 140.625 215.687 138.364C215.604 137.162 214.84 136.434 213.546 136.166C213.181 136.513 212.766 136.751 212.583 137.099C212.218 137.779 211.305 138.142 211.305 139.028C211.305 140.183 211.305 141.321 211.338 142.476C211.355 143.662 211.488 144.864 211.405 146.05C211.289 147.979 211.222 149.877 211.372 151.806C211.504 153.514 211.703 155.191 212.566 156.725C212.882 157.294 213.247 157.943 214.027 157.958C214.84 157.99 215.587 157.674 215.936 156.93C216.201 156.345 216.433 155.697 216.433 155.064C216.433 153.957 216.184 152.866 216.151 151.759C216.085 149.545 216.135 147.347 216.052 145.133H216.085Z" fill="#c99a55"/>
<path d="M171.839 152.945C171.424 151.791 171.059 150.636 170.66 149.45C171.175 149.245 171.523 149.118 172.038 148.913C171.606 148.454 171.291 147.821 170.81 147.663C169.399 147.189 169.067 146.082 168.669 144.959C168.37 144.105 168.071 143.251 167.706 142.413C167.391 141.701 166.992 141.021 166.661 140.309C166.478 139.914 166.395 139.455 166.229 139.044C165.831 138.079 165.432 137.099 164.968 136.166C164.802 135.834 164.387 135.612 163.972 135.881C163.441 136.229 162.76 136.53 162.478 137.02C161.731 138.348 161.117 139.756 160.553 141.163C159.889 142.84 159.391 144.564 158.727 146.256C158.595 146.572 158.163 146.983 157.831 147.015C156.686 147.126 156.155 147.995 155.309 148.486C155.309 148.596 155.309 148.707 155.309 148.818C155.923 149.071 156.553 149.324 157.167 149.577C157.831 149.862 157.947 150.115 157.781 150.81C157.483 152.044 157.201 153.293 156.918 154.527C156.819 154.97 156.736 155.397 156.653 155.84C156.238 157.722 155.773 159.604 155.408 161.501C155.076 163.193 155.856 164 157.599 163.874C157.682 163.874 157.748 163.81 158.014 163.7C158.412 162.593 158.943 161.359 159.292 160.11C160.171 157.026 160.985 153.926 161.814 150.826C162.03 150.051 162.196 149.893 163.076 149.909C163.972 149.909 164.885 149.941 165.781 150.067C166.129 150.115 166.561 150.463 166.71 150.779C167.258 151.854 167.723 152.961 168.171 154.068C168.884 155.824 169.582 157.579 170.279 159.335C170.378 159.556 170.511 159.777 170.627 159.999C171.092 160.79 171.507 161.596 172.038 162.339C172.37 162.798 172.818 163.193 173.283 163.526C173.465 163.652 173.897 163.636 174.129 163.526C174.793 163.225 175.175 162.245 174.942 161.565C173.913 158.686 172.868 155.808 171.839 152.93V152.945ZM165.017 147.078C164.32 146.967 163.64 146.793 162.893 146.635C163.175 145.259 163.242 144.01 164.055 142.666C164.901 143.994 165.3 145.228 165.598 146.477C165.698 146.888 165.432 147.141 165.017 147.078Z" fill="#c99a55"/>
<path d="M243.254 138.474C243.104 138.332 243.005 138.142 242.872 137.968C241.544 136.324 239.934 135.201 237.677 135.312C237.312 135.28 236.997 135.201 236.715 135.264C235.968 135.438 235.088 135.485 234.541 135.912C233.379 136.846 232.4 138.063 232.167 139.518C231.868 141.258 231.022 142.887 231.122 144.706C231.171 145.56 231.005 146.429 230.906 147.283C230.856 147.679 230.591 148.122 230.69 148.469C231.188 150.288 231.537 152.17 232.997 153.594C233.296 153.878 233.594 154.226 233.744 154.59C234.408 156.171 235.818 157.168 236.914 158.401C237.013 158.512 237.196 158.575 237.362 158.638C237.793 158.797 238.258 158.907 238.673 159.081C239.636 159.492 240.615 159.239 241.312 158.449C242.291 157.342 243.005 156.092 243.552 154.748C243.901 153.862 244.482 153.04 244.648 152.139C245.013 150.114 245.229 148.074 245.411 146.034C245.478 145.307 245.262 144.563 245.179 143.836C244.996 141.891 244.731 139.993 243.237 138.49L243.254 138.474ZM241.478 147.489C241.312 149.323 241.079 151.174 240.897 153.008C240.797 153.941 240.299 154.606 239.42 155.207C238.341 154.59 237.544 153.815 237.013 152.803C236.399 151.632 235.752 150.478 235.105 149.323C234.524 148.248 234.142 147.157 234.375 145.923C234.59 144.8 234.623 143.646 234.839 142.523C235.038 141.495 235.354 140.467 235.686 139.471C235.901 138.807 236.482 138.696 237.13 139.107C239.47 140.61 240.797 142.776 241.445 145.322C241.627 146.018 241.544 146.793 241.478 147.521V147.489Z" fill="#c99a55"/>
<path d="M137.152 140.246C135.775 138.569 134.198 137.051 132.372 135.77C131.377 135.074 130.331 134.9 129.219 135.027C128.688 135.09 128.207 135.422 127.908 136.039C127.41 137.051 127.46 138.095 127.31 139.139C127.061 141.084 127.377 142.982 127.692 144.88C127.908 146.208 128.373 147.536 128.389 148.865C128.422 150.873 128.505 152.85 128.987 154.827C129.136 155.475 129.385 156.187 128.671 156.772C128.539 156.883 128.605 157.31 128.688 157.563C129.003 158.48 129.899 158.781 130.646 159.239C131.626 159.856 132.638 159.983 133.683 159.413C134.878 158.765 136.057 158.085 137.218 157.405C137.882 157.01 138.447 156.424 139.144 156.187C140.139 155.871 140.704 155.254 140.87 154.384C141.185 152.787 141.334 151.142 141.567 149.529C141.434 147.789 140.969 146.129 140.173 144.642C139.343 143.077 138.264 141.622 137.119 140.246H137.152ZM135.957 152.139C135.277 152.755 134.513 153.293 133.65 153.973C133.484 153.736 133.269 153.578 133.269 153.42C133.053 149.181 131.791 145.053 132.057 140.704C132.937 141.242 133.8 141.764 134.364 142.555C134.928 143.361 135.509 144.184 135.907 145.069C136.555 146.493 137.235 147.884 137.169 149.545C137.119 150.636 136.721 151.443 135.957 152.139Z" fill="#c99a55"/>
</g>
<defs>
<clipPath id="clip0_880_7053">
<rect width="315" height="164" fill="#c99a55"/>
</clipPath>
</defs>
</svg>
